# xmcd CD database file
#
# Track frame offsets:
#	150
#	28697
#	55004
#	92626
#	121218
#	139781
#	158840
#	172350
#	209168
#	226043
#	246162
#
# Disc length: 3505 seconds
#
# Revision: 0
# Processed by: cddbd v1.5.2PL0 Copyright (c) Steve Scherf et al.
# Submitted via: CDex 1.51
#
DISCID=960daf0b
DTITLE=Rollerball - La clinica del rasoio
DYEAR=2008
DGENRE=Jazz
TTITLE0=Il silenzio del capitano
TTITLE1=Roketto Panchi
TTITLE2=Who The Hell Are You
TTITLE3=Hushpukena
TTITLE4=Chain Reaction Machine
TTITLE5=Self Service Toy
TTITLE6=In The Ballroom
TTITLE7=War Chant
TTITLE8=La Nana
TTITLE9=Tricotillomania
TTITLE10=Suan Blues
EXTD=YEAR: 2008
EXTT0=
EXTT1=
EXTT2=
EXTT3=
EXTT4=
EXTT5=
EXTT6=
EXTT7=
EXTT8=
EXTT9=
EXTT10=
PLAYORDER=
